<svg width="100" height="16" viewBox="0 0 100 16" fill="none" xmlns="http://www.w3.org/2000/svg">
<path d="M8 0L9.79611 5.52786H15.6085L10.9062 8.94427L12.7023 14.4721L8 11.0557L3.29772 14.4721L5.09383 8.94427L0.391548 5.52786H6.20389L8 0Z" fill="#D9D9D9"/>
<path d="M28.9231 0L30.7192 5.52786H36.5315L31.8292 8.94427L33.6254 14.4721L28.9231 11.0557L24.2208 14.4721L26.0169 8.94427L21.3146 5.52786H27.127L28.9231 0Z" fill="#D9D9D9"/>
<path d="M49.8462 0L51.6423 5.52786H57.4546L52.7523 8.94427L54.5484 14.4721L49.8462 11.0557L45.1439 14.4721L46.94 8.94427L42.2377 5.52786H48.05L49.8462 0Z" fill="#E9BA46"/>
<path d="M70.7692 0L72.5653 5.52786H78.3777L73.6754 8.94427L75.4715 14.4721L70.7692 11.0557L66.0669 14.4721L67.8631 8.94427L63.1608 5.52786H68.9731L70.7692 0Z" fill="#E9BA46"/>
<path d="M91.6923 0L93.4884 5.52786H99.3008L94.5985 8.94427L96.3946 14.4721L91.6923 11.0557L86.99 14.4721L88.7861 8.94427L84.0839 5.52786H89.8962L91.6923 0Z" fill="#E9BA46"/>
</svg>
